<?xml version="1.0" encoding="utf-8"?>
<!-- Generator: Adobe Illustrator 19.1.0, SVG Export Plug-In . SVG Version: 6.00 Build 0)  -->
<svg version="1.1" id="Layer_1" xmlns="http://www.w3.org/2000/svg" xmlns:xlink="http://www.w3.org/1999/xlink" x="0px" y="0px"
	 viewBox="-119.5 205.1 691.3 152.4" style="enable-background:new -119.5 205.1 691.3 152.4;" xml:space="preserve">
<style type="text/css">
	.st0{fill:none;stroke:#FFFFFF;stroke-width:11;stroke-linecap:round;stroke-linejoin:round;stroke-miterlimit:10;}
	.st1{fill:#FFFFFF;}
</style>
<g id="Icon_4_">
	<line class="st0" x1="-26.6" y1="231.3" x2="-93.3" y2="298"/>
	<line class="st0" x1="-26.6" y1="298" x2="-60" y2="264.6"/>
	<line class="st0" x1="-4.4" y1="275.8" x2="-37.7" y2="242.4"/>
	<line class="st0" x1="-48.8" y1="320.2" x2="-82.2" y2="286.9"/>
	<line class="st0" x1="6.7" y1="264.6" x2="-60" y2="331.3"/>
	<circle class="st0" cx="-43.3" cy="281.3" r="70.7"/>
</g>
<g>
	<path class="st1" d="M157.5,319.7c2.3,0,3.9,1.7,3.9,3.9c0,2.9-2.7,5.3-5.6,5.3h-44.3c-2.7,0-4.5-2.2-4-4.9l15.5-88.1
		c0.4-2.7,2.9-4.9,5.8-4.9s4.5,2.2,4,4.9L118,319.7C118,319.7,157.5,319.7,157.5,319.7z"/>
	<path class="st1" d="M197.9,330.8c-15.5,0-23.4-10.1-23.4-24.3c0-26.2,15.8-44.9,38.2-44.9c6.6,0,13.1,2,17.8,6.2l0.1-0.7
		c0.6-2.6,2.3-4.6,5.3-4.6c2.9,0,4.3,2.2,3.9,4.6l-10.4,58.4c-0.4,2.6-2.6,4.6-5.3,4.6c-2.7,0-4.2-2-3.7-4.6l1.7-9.2
		C217.3,325.3,208.7,330.8,197.9,330.8z M199.3,322.5c15.8,0,24.3-14.8,26.9-29.8l2.7-16.2c-3.9-3.9-9.8-6.8-17-6.8
		c-15.8,0-28.3,14.4-28.3,35.4C183.7,314.6,187.8,322.5,199.3,322.5z"/>
	<path class="st1" d="M302,271l7-39.8c0.4-2.6,2.6-4.6,5.3-4.6c2.7,0,4.3,2,3.9,4.6l-12.7,71.3c-3.3,19-16.1,28.3-33.2,28.3
		c-15.1,0-24.3-8.1-24.3-24.6c0-26.2,13.5-44.6,35.9-44.6C293.2,261.6,299.4,266.4,302,271z M300,282.6c0,0-3.3-12.7-16.8-12.7
		c-16.1,0-25.7,13.9-25.7,34.9c0,12.4,6.2,17.5,16.5,17.5c10.6,0,20-6.3,22.4-20L300,282.6z"/>
	<path class="st1" d="M372.6,271l7-39.8c0.4-2.6,2.6-4.6,5.3-4.6s4.3,2,3.9,4.6l-12.7,71.3c-3.3,19-16.1,28.3-33.2,28.3
		c-15.1,0-24.3-8.1-24.3-24.6c0-26.2,13.5-44.6,35.9-44.6C363.8,261.6,370,266.4,372.6,271z M370.6,282.6c0,0-3.3-12.7-16.8-12.7
		c-16.1,0-25.7,13.9-25.7,34.9c0,12.4,6.2,17.5,16.5,17.5c10.6,0,20-6.3,22.4-20L370.6,282.6z"/>
	<path class="st1" d="M443.2,271l7-39.8c0.4-2.6,2.6-4.6,5.3-4.6s4.3,2,3.9,4.6l-12.7,71.3c-3.3,19-16.1,28.3-33.2,28.3
		c-15.1,0-24.3-8.1-24.3-24.6c0-26.2,13.5-44.6,35.9-44.6C434.4,261.6,440.6,266.4,443.2,271z M441.2,282.6c0,0-3.3-12.7-16.8-12.7
		c-16.1,0-25.7,13.9-25.7,34.9c0,12.4,6.2,17.5,16.5,17.5c10.6,0,20-6.3,22.4-20L441.2,282.6z"/>
	<path class="st1" d="M499.3,261.6c14.4,0,21.1,7.3,21.1,15.7c0,15.2-15,23.3-49.3,23.3c-0.4,2.2-0.4,3.6-0.4,4.5
		c0,13.1,6.2,17.3,17.7,17.3c7.3,0,13.1-2.9,17.5-6c1-0.7,1.7-1,2.7-1c2.3,0,4.2,1.7,4.2,4c0,1.9-1.2,2.9-2.2,3.7
		c-5.8,4.7-13.7,7.8-24,7.8c-15.8,0-25.2-7.9-25.2-24.6C461.4,279.9,475.8,261.6,499.3,261.6z M511.2,278.3c0-4.2-3.7-8.3-13.4-8.3
		c-14.2,0-23.4,10.6-25.7,23.1C498.7,293.1,511.2,287.5,511.2,278.3z"/>
	<path class="st1" d="M546.1,273.4c4-6.6,12.1-11.5,22-11.5c2.2,0,3.7,1.7,3.7,3.9c0,2.7-2.6,5-5.3,5c-13.2,0-21.6,9.2-23.9,22.4
		l-5.8,32.2c-0.4,2.6-2.7,4.6-5.3,4.6s-4.3-2-3.9-4.6L538,267c0.4-2.6,2.6-4.6,5.3-4.6c2.6,0,4.3,2,3.9,4.6L546.1,273.4z"/>
</g>
</svg>
